<?xml version="1.0" encoding="UTF-8"?>
<svg id="Camada_1" xmlns="http://www.w3.org/2000/svg" version="1.1" viewBox="0 0 390.49 300.75">
  <!-- Generator: Adobe Illustrator 30.1.0, SVG Export Plug-In . SVG Version: 2.1.1 Build 136)  -->
  <path d="M228.01,93.06l-22.13-1.18.02,17.93,25.77,1.39,11.33,1.48,85.12.09-.47,20.18c-.08,3.45-.61,6.89-.97,11.19-8.08,3.4-16.02.36-26.41,2.03l-.89,23.09-1.08,27.79-.91,25.15-1.01,20.87c-4.13.58-7.63,1.18-11.42,1.5l-23.07,1.94.25-73.62-.31-27.15c-3.61-.08-7.57.14-10.85-.12l-16.56-1.29-.63-8.45-54.93-.12V30.27c3.59-.41,6.35.06,9.5.17l45.62,1.61c-2.42-5.48-3.92-17.72,1.77-18.9,1.11-.23,3.9.36,4.8,1.15l5.75,5.05c6.19,5.45,11.78,10.79,18.6,16.12,4.8-9.33,9.76-34.15,18.56-35.45,1.45-.22,5.15,1.35,5.74,2.86l8.58,21.83c2.66,6.78,4.97,12.31,8.49,19.91l23.1-27.02c.81-.94,2.95-1.77,3.87-1.64,5.82.83,1.28,17.83-.11,22.31-3.43,11.03-6.14,21.59-7.71,33.16-.54,4.01-1.07,8.81-4.53,11.52-1.96,1.53-7.19.78-9.85-.18-21.84-7.93-43.82-10.05-66.91-8.74-1.83.1-1.25-6.18,1.05-6.59,26.56-4.7,43.33-2.24,67.95,3.21,1.35-9.14,3.56-17.1,5.97-27.23l-9.02,8.4c-8.08,7.22-15.95-12.14-18.47-17.56l-7.37-15.9-10.89,27.92c-1.63,4.18-9.46,3.64-12.19,1.38-6.76-5.61-12.06-10.75-18.45-17.02l2.51,16.01c.13.86.01,3.06-.62,3.5-.76.53-2.18.61-4.32.8l-.64,5-33.71-.11.11,13.22c5.15.12,7.99.22,11.85.52l9.72.76.41,22.71Z"/>
  <path d="M56.14,230.61c.16-5.42-11.39.47-11.31-6.69l.24-21.02,42.53.44.41,52.47c.03,3.75-4.2,8.82-6.17,11.99-8.44.13-16.52.04-24.67.58-7.48.5-14.72.17-22.26.21l-23.18.12c-3.03-1.38-7.43-4.02-10.9-6.1l-.43-53.73-.25-16.06-.15-41,5.08-7.66,28.83-.79,15.99-.36,29.69-.23,9.09,7.6c.02,3.19,0,7.64-.22,10.96l-.91,13.41-.96,11.13-28.94.07-2.76-16.24c-7.7-.16-14.45-.02-22.18.65l.86,23.43.14,48c7.77,1.08,14.48,1.32,22.02,1.34l.38-12.53Z"/>
  <path d="M182.7,282.47l-27.8.18-26.14-.06.94-20.64,34.24-.08c3.76,0,7.01.28,11.19.7l-1.63-5.58,2.32-25.38,22.57,1.33,1.7,11.06h19.44c1.17-5.36,1.58-11.13,1.44-17.15l-34.67-3.43c-4.21-.42-10.87-3.13-11.1-8.79-.57-14.29-.62-29.06.62-42.75.51-5.65,7.45-6.42,10.79-6.61l17.27-1.01,18.17-1.11c7.85-.48,15.98,2.68,23.5,5.05l1.11,20.64c.59,11.02-17.11,8.94-23.27,8.41l-3.47-9.8-16.92,1.3-1.87,15.06,40.1,3.79c7.71,15.98,7.02,10.78,6.18,30.59l-.94,22.18-8.52,7.38-19.07-.02-36,.23-.19,14.53Z"/>
  <path d="M338.53,255.5l-11.68.71c-4.78.29-9.39.58-13.79.27l.15-13.67,1.05-20.06,1.26-27.9.84-21,.91-14.25c.15-2.31,3.92-6.03,5.82-7.47l28.79-1.11,13.9-.84,14.54-.37,7.94,12.12,1.15,39.56.86,47.08.22,7.12c-9.36,1.14-18.01,1.41-27.35.88l-.96-14.89c-.38-5.95,0-11.46-.04-17.84-7.78-.32-14.76-.02-21.35,1.32l-2.25,30.33ZM362.1,203.01l-.89-14.22-.61-12.41-17.52,1.83-.37,23.48,19.39,1.31Z"/>
  <path d="M169.64,151.72c.5,5.62-.29,10.06-.38,15.12l-.68,36.98.25,40.2c.02,3.6-3.2,8.43-5.57,11.44-10.91,1.94-22.06,1.16-33.33,1.06l-25.38-.23-8.62-5.02.22-21.46c.11-10.37-.18-20.48-.82-30.7-.45-7.15-.11-14.05-.14-21.28l-.08-26.71c6.73-.26,13.5-.46,19.6-.14,7.57.41,8.18,7.45,8.1,12.76-.17,10.97.04,21.26.44,32l.44,12.08.09,23.83,17.44,1.29.25-11.66.68-62.51c.02-2.16,3.69-6.39,5.88-6.45l21.63-.61Z"/>
  <path d="M97.54,100.39c-.52,9.9-1.16,18.84-.93,28.45-1.77,1.71-5.8,1.63-8.71,1.95l-11.94,1.32c-3.2.35-6.26.66-9.18-.13l.35-85.12-14.18-.54-9.52-.65-.08-26.93,20.59-.38c7.98-.15,15.91-1,23.83-.2,16.13,1.65,19.8-1.71,35.35.04l-.26,23.75c-.02,2.26-1.84,4.36-4.42,4.43l-19.17.49-.57,20.93c-.11,4.17,0,8.01-.44,12.1-.72,6.6-.32,13.21-.71,20.47Z"/>
  <path d="M173.24,68.83c-.78,13.07.12,28.01-.81,37.39-.97,9.68-.75,18.56-.5,29.02-7.88.83-15.74.96-23.68-.77-.13-6.44-.49-12.33-.09-18.51l.91-14-15.18-.29c-1.17,11.22-1.35,20.84-1.21,32.41l-12.77.99c-3.8.29-6.74.66-10.6.32l.19-25.84.45-61.63,25.04-.1c1.12,2.34.19,5.43.1,8.04l-.81,24.93,14.43.38.85-9.34.76-23.86c5.07-.05,9.58.21,14.52.74l8.65.92c.31,6.37.11,12.62-.29,19.21Z"/>
  <path d="M319.38,300.49l-39.14.26c-2.27.01-5.18-1.86-5.06-3.6.59-8.27.85-15.09.98-23.41l52.67.45,16.69,1.01.08,25.36-26.24-.06Z"/>
  <path d="M291.61,99.71c-2.51,2.11-6.86.44-9.89.4l-43.86-.46.33-19.84c2.06-.41,4.65-.26,6.89-.24l46.35.55.18,19.58Z"/>
</svg>