<?xml version="1.0" encoding="UTF-8"?>
<svg id="Camada_1" xmlns="http://www.w3.org/2000/svg" version="1.1" viewBox="0 0 469.53 438.5">
  <!-- Generator: Adobe Illustrator 30.1.0, SVG Export Plug-In . SVG Version: 2.1.1 Build 136)  -->
  <defs>
    <style>
      .st0 {
        fill: #fda926;
      }
    </style>
  </defs>
  <path d="M10.58,265.85l.9,7.55c-1.1.69-3.88,1.3-3.91,2.31-.04,1.22.49,4.06.92,5.25l19.88-3.44-.13-4.73c-.03-1.03-4.07-.29-4.31-1.32-.39-1.64-.68-4.2-.96-6.73,2.82-1.17,6.43-1.66,9.38-.53l2.86,17.89c.19,1.19-1.51,3.69-2.85,3.88l-29.35,4.25-3.02-22.56,10.58-1.81Z"/>
  <path d="M31.93,260.91c-8.88,1.14-15.51,1.44-24.16.87l-.16-20.02c-.01-1.64,4.16-2.98,5.83-2.96l17.31.24,1.18,21.87ZM14.19,253.66l10.94-.39.28-5.91-11.17.37-.04,5.93Z"/>
  <path d="M38.03,169.28c1.53-1.73,5.63,2.06,5.08,3.81l-5.89,18.89-18.65-5.07c-1.88-.51-3.75-3.6-3.01-5.78l5.01-14.81c.34-.99,3.2-2.75,4.17-2.34l10.45,4.41-3.63,13.27c6.61,1.9,1.86-7.18,6.47-12.38ZM23.56,179.03c1.19,1.65,3.89.46,4.6-1.15.94-2.15,0-4.38-2.22-4.32-1.55.06-3.28,4.21-2.38,5.47Z"/>
  <path d="M15.59,227.95l15.73,1.26-.18,8.53-23.36-1.72.9-12.03.68-10.88,22.48,1.73c1.34,2,1.22,6.36.05,8.33l-15.69-1.19-.63,5.97Z"/>
  <path d="M17.8,201.15l16.87,3.33-1.15,7.68c-6.07-.78-11.24-2.28-16.75-2.17-2.75.05-5.76-.37-7.95-1.93-1.32-.94-5.93-1.66-6.4-3.26.27-4.36,1.14-10.4,1.95-14.86.53-2.9,6.13-2.82,6.97-.54,1.32,3.6-2.48,5.25-2.45,9.78,0,.57,2.09,1.05,2.31.52l.87-2.19,1.37-3.5c.39-1,4.39-.32,4.75.7.42,1.17.03,3.48-.39,6.45Z"/>
  <path d="M21.19,158.3c-1.5.82-4.95-.93-6.8-2.14l3.11-6.9c1-.79,4.35,1.2,5.48,2.18,1.39,1.2.57,5.57-1.8,6.86Z"/>
  <path d="M44.61,169.13l-22.13-9.15,3.43-8.03,20.83,9.41c-.12,2.27-1,5.16-2.13,7.76Z"/>
  <g>
    <ellipse class="st0" cx="259.84" cy="243.17" rx="209.69" ry="195.34"/>
    <path d="M286.76,170.17l-22.13-1.18.02,17.93,25.77,1.39,11.33,1.48,85.12.09-.47,20.18c-.08,3.45-.61,6.89-.97,11.19-8.08,3.4-16.02.36-26.41,2.03l-.89,23.09-1.08,27.79-.91,25.15-1.01,20.87c-4.13.58-7.63,1.18-11.42,1.5l-23.07,1.94.25-73.62-.31-27.15c-3.61-.08-7.57.14-10.85-.12l-16.56-1.29-.63-8.45-54.93-.12v-105.47c3.59-.41,6.35.06,9.5.17l45.62,1.61c-2.42-5.48-3.92-17.72,1.77-18.9,1.11-.23,3.9.36,4.8,1.15l5.75,5.05c6.19,5.45,11.78,10.79,18.6,16.12,4.8-9.33,9.76-34.15,18.56-35.45,1.45-.22,5.15,1.35,5.74,2.86l8.58,21.83c2.66,6.78,4.97,12.31,8.49,19.91l23.1-27.02c.81-.94,2.95-1.77,3.87-1.64,5.82.83,1.28,17.83-.11,22.31-3.43,11.03-6.14,21.59-7.71,33.16-.54,4.01-1.07,8.81-4.53,11.52-1.96,1.53-7.19.78-9.85-.18-21.84-7.93-43.82-10.05-66.91-8.74-1.83.1-1.25-6.18,1.05-6.59,26.56-4.7,43.33-2.24,67.95,3.21,1.35-9.14,3.56-17.1,5.97-27.23l-9.02,8.4c-8.08,7.22-15.95-12.14-18.47-17.56l-7.37-15.9-10.89,27.92c-1.63,4.18-9.46,3.64-12.19,1.38-6.76-5.61-12.06-10.75-18.45-17.02l2.51,16.01c.13.86.01,3.06-.62,3.5-.76.53-2.18.61-4.32.8l-.64,5-33.71-.11.11,13.22c5.15.12,7.99.22,11.85.52l9.72.76.41,22.71Z"/>
    <path d="M114.88,307.72c.16-5.42-11.39.47-11.31-6.69l.24-21.02,42.53.44.41,52.47c.03,3.75-4.2,8.82-6.17,11.99-8.44.13-16.52.04-24.67.58-7.48.5-14.72.17-22.26.21l-23.18.12c-3.03-1.38-7.43-4.02-10.9-6.1l-.43-53.73-.25-16.06-.15-41,5.08-7.66,28.83-.79,15.99-.36,29.69-.23,9.09,7.6c.02,3.19,0,7.64-.22,10.96l-.91,13.41-.96,11.13-28.94.07-2.76-16.24c-7.7-.16-14.45-.02-22.18.65l.86,23.43.14,48c7.77,1.08,14.48,1.32,22.02,1.34l.38-12.53Z"/>
    <path d="M241.45,359.58l-27.8.18-26.14-.06.94-20.64,34.24-.08c3.76,0,7.01.28,11.19.7l-1.63-5.58,2.32-25.38,22.57,1.33,1.7,11.06h19.44c1.17-5.36,1.58-11.13,1.44-17.15l-34.67-3.43c-4.21-.42-10.87-3.13-11.1-8.79-.57-14.29-.62-29.06.62-42.75.51-5.65,7.45-6.42,10.79-6.61l17.27-1.01,18.17-1.11c7.85-.48,15.98,2.68,23.5,5.05l1.11,20.64c.59,11.02-17.11,8.94-23.27,8.41l-3.47-9.8-16.92,1.3-1.87,15.06,40.1,3.79c7.71,15.98,7.02,10.78,6.18,30.59l-.94,22.18-8.52,7.38-19.07-.02-36,.23-.19,14.53Z"/>
    <path d="M397.28,332.62l-11.68.71c-4.78.29-9.39.58-13.79.27l.15-13.67,1.05-20.06,1.26-27.9.84-21,.91-14.25c.15-2.31,3.92-6.03,5.82-7.47l28.79-1.11,13.9-.84,14.54-.37,7.94,12.12,1.15,39.56.86,47.08.22,7.12c-9.36,1.14-18.01,1.41-27.35.88l-.96-14.89c-.38-5.95,0-11.46-.04-17.84-7.78-.32-14.76-.02-21.35,1.32l-2.25,30.33ZM420.85,280.13l-.89-14.22-.61-12.41-17.52,1.83-.37,23.48,19.39,1.31Z"/>
    <path d="M228.39,228.83c.5,5.62-.29,10.06-.38,15.12l-.68,36.98.25,40.2c.02,3.6-3.2,8.43-5.57,11.44-10.91,1.94-22.06,1.16-33.33,1.06l-25.38-.23-8.62-5.02.22-21.46c.11-10.37-.18-20.48-.82-30.7-.45-7.15-.11-14.05-.14-21.28l-.08-26.71c6.73-.26,13.5-.46,19.6-.14,7.57.41,8.18,7.45,8.1,12.76-.17,10.97.04,21.26.44,32l.44,12.08.09,23.83,17.44,1.29.25-11.66.68-62.51c.02-2.16,3.69-6.39,5.88-6.45l21.63-.61Z"/>
    <path d="M156.29,177.51c-.52,9.9-1.16,18.84-.93,28.45-1.77,1.71-5.8,1.63-8.71,1.95l-11.94,1.32c-3.2.35-6.26.66-9.18-.13l.35-85.12-14.18-.54-9.52-.65-.08-26.93,20.59-.38c7.98-.15,15.91-1,23.83-.2,16.13,1.65,19.8-1.71,35.35.04l-.26,23.75c-.02,2.26-1.84,4.36-4.42,4.43l-19.17.49-.57,20.93c-.11,4.17,0,8.01-.44,12.1-.72,6.6-.32,13.21-.71,20.47Z"/>
    <path d="M231.99,145.95c-.78,13.07.12,28.01-.81,37.39-.97,9.68-.75,18.56-.5,29.02-7.88.83-15.74.96-23.68-.77-.13-6.44-.49-12.33-.09-18.51l.91-14-15.18-.29c-1.17,11.22-1.35,20.84-1.21,32.41l-12.77.99c-3.8.29-6.74.66-10.6.32l.19-25.84.45-61.63,25.04-.1c1.12,2.34.19,5.43.1,8.04l-.81,24.93,14.43.38.85-9.34.76-23.86c5.07-.05,9.58.21,14.52.74l8.65.92c.31,6.37.11,12.62-.29,19.21Z"/>
    <path d="M378.12,377.61l-39.14.26c-2.27.01-5.18-1.86-5.06-3.6.59-8.27.85-15.09.98-23.41l52.67.45,16.69,1.01.08,25.36-26.24-.06Z"/>
    <path d="M350.36,176.82c-2.51,2.11-6.86.44-9.89.4l-43.86-.46.33-19.84c2.06-.41,4.65-.26,6.89-.24l46.35.55.18,19.58Z"/>
    <path d="M184.8,36.38l-3.91-14.95c-.41-1.55,1.13-5.05,2.7-5.27l11.04-1.58-1.37-9.19,7.8-1.92,7.11,31.86c-7.56,0-21.53,8.08-23.37,1.05ZM198.2,30.34l-1.91-8.67-5.81.88,1.6,9.15,6.11-1.35Z"/>
    <path d="M35.64,132.6c.92-1.52,6.31,1.08,5.59,2.67l-3.51,7.86,8.03,4.49c.57.32,2.8-1.19,2.53-1.79l-1.55-3.35c-.6-1.31.47-4.1,1.63-4.93,1.26-.9,4.29-.05,6.65.2l-6.68-5.39c-.86-.69-.45-3.69.13-4.65l5.02-8.39c-5.56-5.39-4.16,7.82-9.78,9.86-1.88.68-4.49-3.83-3.53-5.33l10.5-16.46c7.51,4.36,12.72,7.8,20.11,11.59l-17.84-14.81,12.42-14.89c1.26-1.51,5.51.69,6.91,2.07,2.07,2.04,3.48,4.1,2.19,5.81-2.36,3.13-3.98,3.76-7.18.91l-3.37,3.75,12.88,10.5c-1.77,2.13-4.27,4.65-5.65,6.85l-10.21,16.28c-1.04,1.66-3.87,2.46-6.29,2.77l2.25,3.95-7.81,15.72c-6.04-2.51-10.15-5.19-15.22-6.72-2.79-.84-6.02-1.27-7.1-4.23-.46-1.26-4.02-2.5-3.52-3.52l2.17-4.5c.59-1.21,3.56-.11,5.73,1.08l4.47-7.4ZM59.69,125.94c.51-.58,1.08-2.48.54-2.97s-2.33-1.39-2.77-.81l-1.71,2.25c-.46.61-.9,2.58-.33,3.08.46.4,1.86,1.17,2.26.71l2.01-2.26Z"/>
    <path d="M84.71,82.23l9.08-9.23c-3.22-5.75-5.18,3.78-11.12,7.05-.74.41-2.98-1-3.15-1.85-1.24-6.09,8.92-11.5,15.05-17.2l15.92,17.27-13.53,12.06c-.79.7-2.78,1.81-3.76,1.85-2.64.12-7.49-6.63-8.5-9.96ZM97.95,81.11c.62-.37,1.82-2.03,1.43-2.62s-1.75-1.95-2.34-1.54l-2.15,1.52c-.72.51-1.85,1.84-1.62,2.59.18.6,1.57,1.94,2.1,1.61l2.57-1.56Z"/>
    <path d="M208.94,20.86l13.26-2.22c.03-6.88-9.61,1.74-14.19-.99-1.3-.93,0-6.28,1.84-6.45l19.63-1.85,2.86,23.36-19.7,2.06c-2.03.21-4.49-2.66-4.36-4.56l.66-9.36ZM222.06,23.81l-5.01.58c-.83.1-.39,3.15.43,3.2l3.39.19c.68.04,1.99-.76,2.53-1.19.4-.32-.8-2.84-1.35-2.78Z"/>
    <path d="M140.64,56.54c-1.85-.81-4.84-9.21-4.68-11.84l11.86-6.48c-3.21-6.25-8.55,4.94-13.73,3.43-3.02-.88-1.65-5.79.26-6.68l16.91-7.92,10.77,21.01-5.55,2.68-10.84,5.24c-1.06.51-3.92,1.04-5,.57ZM151.19,45.48c-.27-.72-.78-2.53-1.43-2.34l-3.21.92c-.61.18-2.13,1.63-1.97,2.25s.92,1.71,1.54,1.89c.47.14,5.62-1.28,5.08-2.73Z"/>
    <path d="M268.91,27.42c-2.43,3.02,9.82.73,13.45,3.09,2.18,1.42-1.21,6.09-3.49,5.73l-18.85-2.94,2.34-19.65c.19-1.59,3.1-3.85,4.64-3.55l18.14,3.54c.72,4.9-.58,9.62-2.71,14.13l-10.87-1.6c-.72-.11-2.21.72-2.64,1.24ZM276.04,18.71c-1.06-.84-4.43-1.67-5.43-.83-.54.46-1.03,2.83-.42,3.18.46.27,1.89.94,2.42,1l3.16.33c.69.07.82-3.25.28-3.68Z"/>
    <path d="M154.97,25.42c1.57-1.04,6.93-2.41,7.88-.76l6.13,13.36,5.05-.69-4.46-15.62c1.62-1.69,4.45-3.01,7.2-3.86l7.49,22.51-17.78,6.48c-1.09.4-3.99-.38-4.58-.87l-6.93-20.56Z"/>
    <path d="M121.86,70.23c-2.68-1.52-4.21-4.34-5.27-7.02,1.84-1.07,3.95-2.35,5.2-2.62,2.1-.18,4.82-.63,6.53-1.85.56-.4,1.03-2.14.75-2.74-1.37-2.89-9.59,4.57-13.49,4.54-3.09-2.08-5.5-6.83-6.27-10.29l13.54-9.29c1.02-.7,3.73-1.79,4.68-1.09,1.15.84,2.9,3.23,2.88,4.58s-3.07,3.59-4.44,3.77l-4.99.65c-1.45.19-2.38,3.06-1.39,4.47l11.38-5.49c4,1.23,7.08,6.49,7.89,11.14l-17,11.25Z"/>
    <path d="M259.5,11.48l-7.32,21.19c-3.77.7-8.07.49-12.03-.19l-6.67-22.35,8.2-1.31,4.7,14.32,4.86-13.96,8.25,2.29Z"/>
    <path d="M293.3,39.09l-8.14-1.4,5.17-22.93c.61-2.69-1.11-6.65,1.28-9.29l10.24,2.55-8.55,31.07Z"/>
    <path d="M85.76,101.23l-15.24-14.66c-.54-.52-1.4-2.62-1.48-2.77l-6.78-5.28,6.58-6.35,4.49,6.92c.91.21,3.32,1.04,4.09,1.86l13.35,14.31c-.93,2-2.5,3.87-5,5.97Z"/>
    <path d="M221.81,5.34l-2.49,2.53c-.48.48-2.82-.87-2.53-1.49l1.38-2.92c.36-.77,1.48-2.64,1.96-3.33s2.43,1.39,3.11,1.89-.67,2.53-1.44,3.32Z"/>
  </g>
</svg>